<?xml version="1.0" standalone="no"?><!-- Generator: Gravit.io --><svg xmlns="http://www.w3.org/2000/svg" xmlns:xlink="http://www.w3.org/1999/xlink" style="isolation:isolate" viewBox="0 0 200 200" width="200" height="200"><defs><clipPath id="_clipPath_tm2A7UxZw854buDFJo0iTDd652v40I1f"><rect width="200" height="200"/></clipPath></defs><g clip-path="url(#_clipPath_tm2A7UxZw854buDFJo0iTDd652v40I1f)"><polygon points="72.03,72.476,58.784,85.722,4.308,18" fill="rgb(224,187,140)"/><polygon points="127.97,72.476,141.216,85.722,195.692,18" fill="rgb(224,187,140)"/><path d=" M 178.94 121.713 C 178.391 81.888 145.888 49.732 105.934 49.732 C 65.98 49.732 33.478 81.888 32.928 121.713 L 178.94 121.713 Z " fill="rgb(181,42,48)"/><path d="M 105.934 92.285 L 105.934 92.285 C 124.646 92.285 139.838 107.477 139.838 126.189 L 139.838 148.096 C 139.838 166.808 124.646 182 105.934 182 L 105.934 182 C 87.222 182 72.03 166.808 72.03 148.096 L 72.03 126.189 C 72.03 107.477 87.222 92.285 105.934 92.285 Z" style="stroke:none;fill:#B52A30;stroke-miterlimit:10;"/><path d=" M 84.549 103.978 C 84.549 92.175 94.131 82.593 105.934 82.593 C 117.737 82.593 127.32 92.175 127.32 103.978 C 127.32 115.781 117.737 125.364 105.934 125.364 C 94.131 125.364 84.549 115.781 84.549 103.978 Z " fill="rgb(235,235,235)"/><path d=" M 95.502 103.978 C 95.502 98.221 100.177 93.546 105.934 93.546 C 111.692 93.546 116.366 98.221 116.366 103.978 C 116.366 109.736 111.692 114.41 105.934 114.41 C 100.177 114.41 95.502 109.736 95.502 103.978 Z " fill="rgb(40,40,40)"/><path d=" M 108.021 95.633 C 108.021 93.33 109.89 91.46 112.193 91.46 C 114.496 91.46 116.366 93.33 116.366 95.633 C 116.366 97.936 114.496 99.805 112.193 99.805 C 109.89 99.805 108.021 97.936 108.021 95.633 Z " fill="rgb(235,235,235)"/><rect x="95.502" y="131.927" width="23.558" height="36.512" transform="matrix(1,0,0,1,0,0)" fill="rgb(77,37,22)"/><path d=" M 96.109 131.927 L 101.325 137.143 L 100.282 132.97 L 103.412 136.099 L 105.498 134.013 L 105.498 141.315 L 109.671 136.099 L 110.714 141.315 L 111.757 132.97 L 112.801 139.229 L 119.06 131.927 L 96.109 131.927 Z " fill="rgb(255,255,255)"/><path d=" M 95.502 168.438 L 98.196 158.006 L 98.196 168.438 L 100.282 161.136 L 102.369 168.438 L 103.412 161.136 L 105.934 168.438 L 107.585 162.179 L 108.628 168.438 L 110.714 161.136 L 112.801 168.438 L 114.887 162.179 L 116.973 168.438 L 118.017 162.179 L 119.06 168.438 L 95.502 168.438 Z " fill="rgb(255,255,255)"/></g></svg>